<svg xmlns="http://www.w3.org/2000/svg" width="38.723" height="46.481" viewBox="0 0 38.723 46.481">
  <g id="그룹_2109" data-name="그룹 2109" transform="translate(-373.039 -584.951)">
    <path id="패스_1349" data-name="패스 1349" d="M385.064,630.192l31.935.26a3.212,3.212,0,0,0,3.4-2.983l.048-4.573c.077-7.632-6.788-13.876-15.333-13.946l-7.727-.063c-8.546-.07-15.537,6.062-15.615,13.694l-.047,4.573A3.2,3.2,0,0,0,385.064,630.192Z" transform="translate(-8.685 0.98)" fill="#fff"/>
    <path id="패스_1350" data-name="패스 1350" d="M11.739,0c6.582.1,12,5,12.1,10.953S18.68,21.647,12.1,21.548.1,16.545,0,10.6,5.157-.1,11.739,0Z" transform="translate(379.265 588.567) rotate(-8.725)" fill="#fff"/>
  </g>
</svg>
