<svg xmlns="http://www.w3.org/2000/svg" width="69.997" height="64.5" viewBox="0 0 69.997 64.5">
  <g id="그룹_2725" data-name="그룹 2725" transform="translate(-1721 -1240)">
    <g id="그룹_2247" data-name="그룹 2247" transform="translate(1292.768 557.292)">
      <path id="패스_1358" data-name="패스 1358" d="M459.67,712.921a15.772,15.772,0,1,0,15.772-15.772A15.79,15.79,0,0,0,459.67,712.921Zm26.761-.961a11.03,11.03,0,1,1-11.947-10.028A11.029,11.029,0,0,1,486.431,711.96Z" transform="translate(-3.712 -3.712)" fill="#fff"/>
      <path id="패스_1359" data-name="패스 1359" d="M493.358,717.927l2.606-.1a1.61,1.61,0,0,0,1.4-1.111l.857-4.128a1.611,1.611,0,0,0-.833-1.576l-2.349-1.137a1.969,1.969,0,0,1-1.009-1.587s0-.3-.065-1.016l-.02-.246c-.034-.267.358-.752.872-1.077l2.212-1.4a1.61,1.61,0,0,0,.653-1.659l-1.307-4a1.609,1.609,0,0,0-1.51-.946l-2.615.19a1.867,1.867,0,0,1-1.6-.737c-.273-.451-.837-2.018-.554-2.555l1.215-2.31a1.6,1.6,0,0,0-.264-1.761l-3.14-2.809a1.606,1.606,0,0,0-1.781-.068l-2.164,1.467a1.866,1.866,0,0,1-1.75.161c-.459-.252-1.735-1.333-1.759-1.94l-.1-2.608a1.606,1.606,0,0,0-1.108-1.395l-4.127-.859a1.605,1.605,0,0,0-1.574.832L472.4,685.9a1.966,1.966,0,0,1-1.585,1.01s-.3.005-1.016.065l-.248.024c-.267.033-.75-.36-1.074-.874l-1.4-2.215a1.607,1.607,0,0,0-1.658-.652l-4.007,1.308a1.605,1.605,0,0,0-.947,1.508l.189,2.615a1.868,1.868,0,0,1-.739,1.6c-.449.273-2.014.839-2.552.556l-2.313-1.216a1.605,1.605,0,0,0-1.761.263l-2.809,3.142a1.606,1.606,0,0,0-.065,1.78l1.469,2.165a1.863,1.863,0,0,1,.16,1.749c-.253.46-1.335,1.733-1.942,1.759l-2.609.1A1.609,1.609,0,0,0,446.1,701.7l-.857,4.129a1.61,1.61,0,0,0,.834,1.575l2.351,1.137a1.964,1.964,0,0,1,1.007,1.586s.005.306.067,1.015l.022.249c.033.267-.36.751-.874,1.075l-2.214,1.4a1.606,1.606,0,0,0-.653,1.657l1.308,4a1.609,1.609,0,0,0,1.509.947l2.613-.19a1.864,1.864,0,0,1,1.6.737c.273.449.838,2.017.556,2.555l-1.216,2.31a1.6,1.6,0,0,0,.264,1.761l3.143,2.811a1.609,1.609,0,0,0,1.78.066l2.165-1.468a1.854,1.854,0,0,1,1.749-.16c.458.252,1.733,1.333,1.758,1.94l.1,2.609a1.61,1.61,0,0,0,1.109,1.4l4.126.857a1.61,1.61,0,0,0,1.575-.833l1.141-2.351a1.975,1.975,0,0,1,1.587-1.01s.3,0,1.016-.063l.245-.021c.267-.036.75.357,1.074.871l1.4,2.215a1.6,1.6,0,0,0,1.658.654l4.005-1.309a1.608,1.608,0,0,0,.947-1.508l-.189-2.615a1.871,1.871,0,0,1,.738-1.6c.449-.274,2.016-.837,2.553-.556l2.312,1.215a1.6,1.6,0,0,0,1.761-.264l2.81-3.143a1.607,1.607,0,0,0,.067-1.78l-1.468-2.163a1.859,1.859,0,0,1-.161-1.749C491.668,719.227,492.751,717.95,493.358,717.927Zm-21.627,9.254A17.973,17.973,0,1,1,489.7,709.209,17.993,17.993,0,0,1,471.731,727.181Z" transform="translate(0 0)" fill="#fff"/>
    </g>
    <g id="그룹_2724" data-name="그룹 2724" transform="translate(1275.768 586.79)">
      <path id="패스_1358-2" data-name="패스 1358" d="M459.67,707.565a10.416,10.416,0,1,0,10.416-10.416A10.428,10.428,0,0,0,459.67,707.565Zm17.673-.634a7.285,7.285,0,1,1-7.89-6.622A7.284,7.284,0,0,1,477.344,706.93Z" transform="translate(-7.354 -7.355)" fill="#fff"/>
      <path id="패스_1359-2" data-name="패스 1359" d="M477.015,705.968l1.721-.067a1.063,1.063,0,0,0,.921-.734l.566-2.726a1.064,1.064,0,0,0-.55-1.041l-1.551-.751a1.3,1.3,0,0,1-.666-1.048s0-.2-.043-.671l-.013-.162c-.023-.176.237-.5.576-.711l1.461-.922a1.063,1.063,0,0,0,.431-1.1L479,693.4a1.063,1.063,0,0,0-1-.625l-1.727.125a1.233,1.233,0,0,1-1.056-.487c-.181-.3-.553-1.333-.366-1.687l.8-1.526a1.059,1.059,0,0,0-.174-1.163l-2.074-1.855a1.061,1.061,0,0,0-1.176-.045l-1.429.969a1.232,1.232,0,0,1-1.156.106c-.3-.166-1.146-.881-1.162-1.281l-.068-1.722a1.061,1.061,0,0,0-.732-.921l-2.726-.568a1.06,1.06,0,0,0-1.04.549l-.752,1.552a1.3,1.3,0,0,1-1.047.667s-.2,0-.671.043l-.164.016c-.176.022-.5-.238-.709-.578l-.922-1.463a1.061,1.061,0,0,0-1.095-.431l-2.646.864a1.06,1.06,0,0,0-.625,1l.125,1.727a1.234,1.234,0,0,1-.488,1.056c-.3.181-1.33.554-1.685.367l-1.527-.8a1.06,1.06,0,0,0-1.163.174L448.7,689.53a1.061,1.061,0,0,0-.043,1.176l.97,1.43a1.23,1.23,0,0,1,.106,1.155c-.167.3-.882,1.145-1.283,1.162l-1.723.067a1.062,1.062,0,0,0-.92.732l-.566,2.727a1.063,1.063,0,0,0,.551,1.04l1.553.751a1.3,1.3,0,0,1,.665,1.047s0,.2.044.671l.015.164c.022.176-.238.5-.577.71l-1.462.922a1.061,1.061,0,0,0-.431,1.095l.864,2.644a1.062,1.062,0,0,0,1,.625l1.726-.126a1.231,1.231,0,0,1,1.056.487c.181.3.553,1.332.367,1.687l-.8,1.525a1.06,1.06,0,0,0,.174,1.163l2.076,1.857a1.063,1.063,0,0,0,1.176.044l1.43-.97a1.224,1.224,0,0,1,1.155-.105c.3.167,1.145.881,1.161,1.281l.068,1.723a1.063,1.063,0,0,0,.733.921l2.725.566a1.063,1.063,0,0,0,1.04-.55l.753-1.553a1.3,1.3,0,0,1,1.048-.667s.2,0,.671-.042l.162-.014c.176-.024.5.236.709.576l.922,1.463a1.06,1.06,0,0,0,1.095.432l2.645-.864a1.062,1.062,0,0,0,.626-1l-.125-1.727a1.236,1.236,0,0,1,.487-1.057c.3-.181,1.332-.553,1.686-.367l1.527.8a1.059,1.059,0,0,0,1.163-.174l1.856-2.076a1.061,1.061,0,0,0,.044-1.176l-.97-1.429a1.228,1.228,0,0,1-.107-1.155C475.9,706.826,476.614,705.983,477.015,705.968Zm-14.283,6.111A11.869,11.869,0,1,1,474.6,700.21,11.883,11.883,0,0,1,462.732,712.079Z" transform="translate(0 0)" fill="#fff"/>
    </g>
  </g>
</svg>
