<svg id="구성_요소_18_1" data-name="구성 요소 18 – 1" xmlns="http://www.w3.org/2000/svg" width="40.116" height="49.227" viewBox="0 0 40.116 49.227">
  <path id="패스_1368" data-name="패스 1368" d="M721.045,534.818a2.936,2.936,0,0,0-2.933,2.934v43.359a2.938,2.938,0,0,0,2.933,2.934H747.23v-5.762a4.613,4.613,0,0,1,4.608-4.608h6.389V537.752a2.937,2.937,0,0,0-2.934-2.934Zm29.536,26.859H725.758v-2.019h24.823Zm0-7.065H725.758v-2.019h24.823Zm0-7.065H725.758v-2.019h24.823Z" transform="translate(-718.112 -534.818)" fill="#fff"/>
  <path id="패스_1369" data-name="패스 1369" d="M756.015,587.643V592.3l8.052-7.593h-5.119A2.938,2.938,0,0,0,756.015,587.643Z" transform="translate(-725.222 -544.178)" fill="#fff"/>
</svg>
