<svg xmlns="http://www.w3.org/2000/svg" width="16.46" height="19.758" viewBox="0 0 16.46 19.758">
  <g id="그룹_2294" data-name="그룹 2294" transform="translate(-373.039 -584.951)">
    <path id="패스_1349" data-name="패스 1349" d="M383.144,617.944l13.575.11a1.365,1.365,0,0,0,1.445-1.268l.02-1.944c.033-3.244-2.885-5.9-6.518-5.928l-3.285-.027c-3.633-.03-6.6,2.577-6.637,5.821l-.02,1.944A1.359,1.359,0,0,0,383.144,617.944Z" transform="translate(-8.685 -13.345)" fill="#fe0"/>
    <path id="패스_1350" data-name="패스 1350" d="M4.99,0a5.03,5.03,0,0,1,5.142,4.656,4.66,4.66,0,0,1-4.989,4.5A5.03,5.03,0,0,1,0,4.5,4.66,4.66,0,0,1,4.99,0Z" transform="translate(375.685 586.488) rotate(-8.725)" fill="#fe0"/>
  </g>
</svg>
