<svg xmlns="http://www.w3.org/2000/svg" width="49.896" height="50" viewBox="0 0 49.896 50"><g transform="translate(-345.523 -273.923)"><g transform="translate(345.523 273.923)"><path d="M347.172,275.6a1.8,1.8,0,0,0-1.649,1.8v41.353a1.8,1.8,0,0,0,1.491,1.78l18.874,3.362a1.807,1.807,0,0,0,2.124-1.778V275.73a1.805,1.805,0,0,0-1.966-1.8Zm15.893,25.794c-.777,0-1.407-1.108-1.407-2.472s.63-2.471,1.407-2.471,1.408,1.1,1.408,2.471S363.842,301.394,363.065,301.394Z" transform="translate(-345.523 -273.923)" fill="#fff"/><path d="M643.674,435.05,628.922,424.1v5.683H617.46v10.474h11.462v5.681Z" transform="translate(-593.778 -411.019)" fill="#ffa800"/><path d="M530.795,535.093c0,1.364.63,2.472,1.407,2.472s1.408-1.108,1.408-2.472-.63-2.471-1.408-2.471S530.795,533.727,530.795,535.093Z" transform="translate(-514.661 -510.093)" fill="#34435a"/><path d="M627.637,307.875V293.737a1.408,1.408,0,0,0-1.406-1.409H617.46v2.816h7.363v12.731Z" transform="translate(-593.778 -290.725)" fill="#fff"/><path d="M617.46,641.958v2.816h8.772a1.409,1.409,0,0,0,1.406-1.409V627.137h-2.814v14.821Z" transform="translate(-593.778 -596.377)" fill="#fff"/></g></g></svg>