<svg xmlns="http://www.w3.org/2000/svg" width="22.166" height="19.718" viewBox="0 0 22.166 19.718"><path d="M388.516,429.377a8.274,8.274,0,1,0-15.022-6.072h2.529a5.8,5.8,0,1,1,10.7,4.275,5.794,5.794,0,0,1-5.085,3,5.808,5.808,0,0,1-5.616-4.338h-2.528a8.275,8.275,0,0,0,12.738,5.418l4.225,4.225a1.155,1.155,0,0,0,1.634,0l.654-.653a1.155,1.155,0,0,0,0-1.634Z" transform="translate(-370.913 -416.511)" fill="#e35aff"/><path d="M371,433.4h1.2a.646.646,0,0,0,.561-.326l.338-.591,1.451,2.9a.646.646,0,0,0,.578.357h.04a.648.648,0,0,0,.57-.43l1.419-4.016.593,1.674c0,.013.01.026.015.038a.646.646,0,0,0,.594.392h2.088a.647.647,0,1,0,0-1.293h-1.631l-1.051-2.966a.647.647,0,0,0-.61-.431h0a.647.647,0,0,0-.609.431l-1.521,4.3-1.31-2.621a.647.647,0,0,0-.561-.357h-.015a.651.651,0,0,0-.565.325l-.751,1.314h-5.13a.647.647,0,1,0,0,1.293H371Z" transform="translate(-366.045 -424.483)" fill="#e35aff"/></svg>