<svg xmlns="http://www.w3.org/2000/svg" xmlns:xlink="http://www.w3.org/1999/xlink" width="50" height="50" viewBox="0 0 50 50"><defs><linearGradient id="a" x1="0.5" x2="0.5" y2="1" gradientUnits="objectBoundingBox"><stop offset="0" stop-color="#ff7500"/><stop offset="1" stop-color="#ff7500"/></linearGradient></defs><path d="M25,0A25.115,25.115,0,0,1,47.049,13.207,24.589,24.589,0,0,1,50,25,25,25,0,1,1,25,0Z" fill="url(#a)"/><g transform="translate(-421.495 -328.09)"><path d="M454.682,349.391l1.769-1.541a.933.933,0,0,0,0-1.541,1.353,1.353,0,0,0-1.769,0l-1.856,1.541a1.066,1.066,0,0,0,0,1.541,1.475,1.475,0,0,0,1.856,0Zm-22.416,8.443h28.459a.755.755,0,0,1,.77.77h0a.756.756,0,0,1-.77.771H432.266a.756.756,0,0,1-.771-.771h0a.755.755,0,0,1,.771-.77Zm14.291-9.985a9.323,9.323,0,0,1,5.709,2.084,6.735,6.735,0,0,1,2.311,4.94,5.551,5.551,0,0,1-.1,1.313h-1.979a5.715,5.715,0,0,0,.211-1.313,5.178,5.178,0,0,0-1.857-3.731,6.461,6.461,0,0,0-4.29-1.541,6.545,6.545,0,0,0-4.4,1.541,5,5,0,0,0-1.751,3.731,5.551,5.551,0,0,0,.1,1.313h-1.979a4.792,4.792,0,0,1-.122-1.313,6.8,6.8,0,0,1,2.31-4.94,9.4,9.4,0,0,1,5.833-2.084Zm0-.665a1.194,1.194,0,0,0,1.208-1.087v-2.189a1.125,1.125,0,0,0-1.208-1.1c-.771,0-1.315.437-1.315,1.1V346.1a1.228,1.228,0,0,0,1.315,1.087Zm-8.25,2.206a1.5,1.5,0,0,0,1.874,0,.932.932,0,0,0,0-1.541l-1.768-1.541a1.474,1.474,0,0,0-1.857,0,1.068,1.068,0,0,0,0,1.541Zm-.77,5.483a1.227,1.227,0,0,0-1.313-1.087H433.7a1.193,1.193,0,0,0-1.208,1.087,1.125,1.125,0,0,0,1.208,1.1h2.522a1.161,1.161,0,0,0,1.313-1.1Zm21.769-1.087h-2.54a1.238,1.238,0,0,0-1.313,1.087,1.17,1.17,0,0,0,1.313,1.1h2.54a1.232,1.232,0,0,0,1.313-1.1,1.317,1.317,0,0,0-1.313-1.087Z" fill="#fff" fill-rule="evenodd"/></g></svg>