<svg id="그룹_2242" data-name="그룹 2242" xmlns="http://www.w3.org/2000/svg" width="58.602" height="50" viewBox="0 0 58.602 50">
  <path id="패스_1357" data-name="패스 1357" d="M275.3,571.231l-1.839-1.876L262.176,581.6l2.058,1.581,1.839-2.059,2.095,1.838a1.358,1.358,0,0,0,1.839,0l5.514-5.993c.257-.22.257-.441.257-.919h0a.905.905,0,0,0-.477-.919l-1.839-1.838Zm-47.536-6.47-3.676,2.058v-4.6a1.736,1.736,0,0,0-1.617-1.617h-3.676a1.736,1.736,0,0,0-1.617,1.617v22.133a1.555,1.555,0,0,0,1.617,1.579h3.676a1.555,1.555,0,0,0,1.617-1.579V575.6l3.676-2.315Zm5.551-11.067v6.211c0,.479,0,1.4-.22,1.4,0,0,0,.221-.7.7l-1.14.663v8.566l5.074-3.015a8.592,8.592,0,0,0,4.375-7.133l18.934,18.641,12.205-12.905s-31.36-30.883-31.139-30.883L228.021,548.62Z" transform="translate(-217.176 -535.935)" fill="#fff" fill-rule="evenodd"/>
</svg>
