<svg xmlns="http://www.w3.org/2000/svg" width="50" height="50" viewBox="0 0 50 50"><g transform="translate(-392 -168)"><circle cx="25" cy="25" r="25" transform="translate(392 168)" fill="#5bce2b"/></g><g transform="translate(-612.169 -44.413)"><g transform="translate(624.783 55.704)"><path d="M644.973,62.956l1.7-1.666a1.31,1.31,0,0,0,0-1.666,1.2,1.2,0,0,0-1.7,0l-1.594,1.666a1.1,1.1,0,0,0,0,1.666,1.071,1.071,0,0,0,1.594,0Zm-7.394-1.666a6.876,6.876,0,0,1,5.195,2.253,7.186,7.186,0,0,1,2.2,5.34,5.472,5.472,0,0,1-.1,1.306h-1.8a5.523,5.523,0,0,0,.1-1.306,5.664,5.664,0,0,0-1.593-4.033,5.414,5.414,0,0,0-4-1.666,5.358,5.358,0,0,0-3.9,1.666,5.754,5.754,0,0,0-1.7,4.033,5.17,5.17,0,0,0,.207,1.306h-1.8a5.242,5.242,0,0,1-.191-1.306,7.566,7.566,0,0,1,2.2-5.34,7.053,7.053,0,0,1,5.194-2.253Zm0-.833a1.13,1.13,0,0,0,1.2-1.175V56.9a1.213,1.213,0,0,0-1.2-1.194,1.2,1.2,0,0,0-1.1,1.194v2.385a1.108,1.108,0,0,0,1.1,1.175Zm-7.394,2.5a1.18,1.18,0,0,0,1.689,0,1.208,1.208,0,0,0-.1-1.666l-1.593-1.666a1.089,1.089,0,0,0-1.609,0,1.122,1.122,0,0,0,0,1.666Zm-.7,5.927a1.133,1.133,0,0,0-1.212-1.174h-2.294a1.119,1.119,0,0,0-1.195,1.174,1.214,1.214,0,0,0,1.195,1.193h2.294a1.2,1.2,0,0,0,1.212-1.193Zm19.7-1.174h-2.295a1.1,1.1,0,0,0-1.1,1.174,1.2,1.2,0,0,0,1.1,1.193h2.295a1.134,1.134,0,0,0,1.195-1.193,1.119,1.119,0,0,0-1.195-1.174Z" transform="translate(-624.783 -55.704)" fill="#fff" fill-rule="evenodd"/></g><g transform="translate(624.783 67.443)"><path d="M630.185,74.937,628.48,76.6a1.31,1.31,0,0,0,0,1.666,1.2,1.2,0,0,0,1.705,0l1.593-1.666a1.1,1.1,0,0,0,0-1.666,1.071,1.071,0,0,0-1.593,0Zm7.394,1.666a6.869,6.869,0,0,1-5.194-2.253,7.181,7.181,0,0,1-2.2-5.34,5.52,5.52,0,0,1,.1-1.306h1.8a5.52,5.52,0,0,0-.1,1.306,5.665,5.665,0,0,0,1.594,4.034,5.413,5.413,0,0,0,4,1.666,5.355,5.355,0,0,0,3.9-1.666,5.759,5.759,0,0,0,1.705-4.034,5.205,5.205,0,0,0-.208-1.306h1.8a5.244,5.244,0,0,1,.192,1.306,7.564,7.564,0,0,1-2.2,5.34,7.052,7.052,0,0,1-5.2,2.253Zm0,.833a1.13,1.13,0,0,0-1.2,1.174V81a1.214,1.214,0,0,0,1.2,1.193,1.2,1.2,0,0,0,1.1-1.193V78.611a1.107,1.107,0,0,0-1.1-1.174Zm7.394-2.5a1.182,1.182,0,0,0-1.69,0,1.21,1.21,0,0,0,.1,1.666l1.594,1.666a1.087,1.087,0,0,0,1.609,0,1.123,1.123,0,0,0,0-1.666Zm.7-5.927a1.133,1.133,0,0,0,1.212,1.175h2.294a1.12,1.12,0,0,0,1.195-1.175,1.213,1.213,0,0,0-1.195-1.193h-2.294a1.2,1.2,0,0,0-1.212,1.193Zm-19.7,1.175h2.295a1.1,1.1,0,0,0,1.1-1.175,1.2,1.2,0,0,0-1.1-1.193h-2.295a1.134,1.134,0,0,0-1.195,1.193,1.12,1.12,0,0,0,1.195,1.175Z" transform="translate(-624.783 -67.704)" fill="#fff" fill-rule="evenodd"/></g></g></svg>