<svg xmlns="http://www.w3.org/2000/svg" width="10.667" height="13.09" viewBox="0 0 10.667 13.09">
  <g id="그룹_2251" data-name="그룹 2251" transform="translate(-718.112 -534.818)">
    <path id="패스_1368" data-name="패스 1368" d="M718.892,534.818a.781.781,0,0,0-.78.78v11.53a.781.781,0,0,0,.78.78h6.963v-1.532a1.227,1.227,0,0,1,1.225-1.225h1.7V535.6a.781.781,0,0,0-.78-.78Zm7.854,7.142h-6.6v-.537h6.6Zm0-1.879h-6.6v-.537h6.6Zm0-1.879h-6.6v-.537h6.6Z" fill="#fff"/>
    <path id="패스_1369" data-name="패스 1369" d="M756.015,585.489v1.239l2.141-2.019H756.8A.781.781,0,0,0,756.015,585.489Z" transform="translate(-29.715 -39.113)" fill="#fff"/>
  </g>
</svg>
