<svg xmlns="http://www.w3.org/2000/svg" width="17.003" height="17.003" viewBox="0 0 17.003 17.003">
  <g id="그룹_2252" data-name="그룹 2252" transform="translate(-312.37 -368.707)">
    <g id="구성_요소_6_1" data-name="구성 요소 6 – 1" transform="translate(312.37 368.707)">
      <path id="패스_1360" data-name="패스 1360" d="M312.37,377.208a8.5,8.5,0,1,0,8.5-8.5A8.5,8.5,0,0,0,312.37,377.208Zm15.067,0a6.565,6.565,0,1,1-6.565-6.565A6.565,6.565,0,0,1,327.436,377.208Z" transform="translate(-312.37 -368.707)" fill="#fff"/>
      <path id="패스_1361" data-name="패스 1361" d="M348.615,383.225v4.982a.264.264,0,0,0,.529,0v-4.982a.264.264,0,1,0-.529,0Z" transform="translate(-340.415 -379.736)" fill="#fff"/>
      <path id="패스_1362" data-name="패스 1362" d="M328.542,407.9c-.135.056-.235.122-.224.148s.129,0,.263-.055l4.6-1.916c.134-.056.235-.122.224-.148s-.129,0-.263.055Z" transform="translate(-324.709 -397.498)" fill="#fff"/>
      <path id="패스_1363" data-name="패스 1363" d="M349.02,404.6a.386.386,0,1,0,0,.773h3.266a.386.386,0,0,0,0-.773Z" transform="translate(-340.429 -396.48)" fill="#fff"/>
      <path id="패스_1364" data-name="패스 1364" d="M347.215,403.841a.658.658,0,1,0,.658-.658A.658.658,0,0,0,347.215,403.841Z" transform="translate(-339.332 -395.383)" fill="#fff"/>
    </g>
  </g>
</svg>
