<svg xmlns="http://www.w3.org/2000/svg" width="11.869" height="14.247" viewBox="0 0 11.869 14.247">
  <g id="그룹_2244" data-name="그룹 2244" transform="translate(-373.039 -584.951)">
    <path id="패스_1349" data-name="패스 1349" d="M382.748,615.418l9.789.08a.984.984,0,0,0,1.042-.914l.015-1.4a4.5,4.5,0,0,0-4.7-4.275l-2.368-.019a4.522,4.522,0,0,0-4.786,4.2l-.014,1.4A.98.98,0,0,0,382.748,615.418Z" transform="translate(-8.685 -16.299)" fill="#fff"/>
    <path id="패스_1350" data-name="패스 1350" d="M3.6,0A3.627,3.627,0,0,1,7.306,3.358,3.36,3.36,0,0,1,3.708,6.6,3.627,3.627,0,0,1,0,3.248,3.36,3.36,0,0,1,3.6,0Z" transform="translate(374.947 586.06) rotate(-8.725)" fill="#fff"/>
  </g>
</svg>
