<svg xmlns="http://www.w3.org/2000/svg" width="20.95" height="20.95" viewBox="0 0 20.95 20.95">
  <g id="그룹_2252" data-name="그룹 2252" transform="translate(-312.37 -368.707)">
    <path id="패스_1360" data-name="패스 1360" d="M312.37,379.182a10.475,10.475,0,1,0,10.475-10.475A10.475,10.475,0,0,0,312.37,379.182Zm18.565,0a8.09,8.09,0,1,1-8.09-8.089A8.089,8.089,0,0,1,330.935,379.182Z" transform="translate(0)" fill="#0091ff"/>
    <path id="패스_1361" data-name="패스 1361" d="M348.615,383.287v6.138a.326.326,0,0,0,.651,0v-6.138a.326.326,0,1,0-.651,0Z" transform="translate(-26.141 -10.281)" fill="#0091ff"/>
    <path id="패스_1362" data-name="패스 1362" d="M328.594,408.357c-.166.069-.29.151-.277.183s.159,0,.325-.067l5.666-2.361c.166-.069.29-.151.276-.183s-.159,0-.324.068Z" transform="translate(-11.501 -26.836)" fill="#0091ff"/>
    <path id="패스_1363" data-name="패스 1363" d="M349.109,404.6a.476.476,0,1,0,0,.952h4.024a.476.476,0,1,0,0-.952Z" transform="translate(-26.154 -25.887)" fill="#0091ff"/>
    <path id="패스_1364" data-name="패스 1364" d="M347.215,403.994a.811.811,0,1,0,.811-.811A.811.811,0,0,0,347.215,403.994Z" transform="translate(-25.132 -24.865)" fill="#0091ff"/>
  </g>
</svg>
