<svg xmlns="http://www.w3.org/2000/svg" width="27" height="34" viewBox="0 0 27 34">
  <g id="그룹_2563" data-name="그룹 2563" transform="translate(-1024 -659)">
    <circle id="타원_183" data-name="타원 183" cx="13.5" cy="13.5" r="13.5" transform="translate(1024 659)" fill="#fff"/>
    <path id="다각형_1" data-name="다각형 1" d="M4.624,1.593a1,1,0,0,1,1.752,0l3.809,6.925A1,1,0,0,1,9.309,10H1.691A1,1,0,0,1,.815,8.518Z" transform="translate(1043 693) rotate(180)" fill="#fff"/>
    <g id="그룹_2512" data-name="그룹 2512" transform="translate(1030.783 665.655)">
      <path id="패스_1357" data-name="패스 1357" d="M232.483,545.23l-.484-.494-2.972,3.224.542.416.484-.542.552.484a.358.358,0,0,0,.484,0l1.452-1.578c.068-.058.068-.116.068-.242h0a.239.239,0,0,0-.126-.242l-.484-.484Zm-12.519-1.7-.968.542v-1.21a.457.457,0,0,0-.426-.426H217.6a.457.457,0,0,0-.426.426v5.829a.409.409,0,0,0,.426.416h.968a.409.409,0,0,0,.426-.416v-2.3l.968-.61Zm1.462-2.914v1.636c0,.126,0,.368-.058.368,0,0,0,.058-.184.184l-.3.174v2.256l1.336-.794a2.263,2.263,0,0,0,1.152-1.878l4.986,4.909,3.214-3.4s-8.259-8.133-8.2-8.133l-3.34,3.341Z" transform="translate(-217.176 -535.935)" fill="#0091ff" fill-rule="evenodd"/>
    </g>
  </g>
</svg>
