<svg xmlns="http://www.w3.org/2000/svg" width="15.379" height="18.872" viewBox="0 0 15.379 18.872">
  <g id="그룹_2251" data-name="그룹 2251" transform="translate(-718.112 -534.818)">
    <path id="패스_1368" data-name="패스 1368" d="M719.236,534.818a1.126,1.126,0,0,0-1.124,1.125v16.622a1.126,1.126,0,0,0,1.124,1.125h10.039v-2.209a1.769,1.769,0,0,1,1.767-1.766h2.45V535.943a1.126,1.126,0,0,0-1.125-1.125Zm11.323,10.3h-9.516v-.774h9.516Zm0-2.709h-9.516v-.774h9.516Zm0-2.709h-9.516v-.774h9.516Z" fill="#0091ff"/>
    <path id="패스_1369" data-name="패스 1369" d="M756.015,585.834v1.786l3.087-2.911H757.14A1.126,1.126,0,0,0,756.015,585.834Z" transform="translate(-26.098 -34.353)" fill="#0091ff"/>
  </g>
</svg>
