<svg xmlns="http://www.w3.org/2000/svg" width="21.895" height="18.681" viewBox="0 0 21.895 18.681"><path d="M238.892,549.122l-.687-.7L233.989,553l.769.591.687-.769.783.687a.507.507,0,0,0,.687,0l2.06-2.239c.1-.082.1-.165.1-.343h0a.338.338,0,0,0-.178-.343l-.687-.687Zm-17.76-2.417-1.374.769v-1.717a.649.649,0,0,0-.6-.6H217.78a.649.649,0,0,0-.6.6v8.269a.581.581,0,0,0,.6.59h1.374a.581.581,0,0,0,.6-.59v-3.27l1.374-.865Zm2.074-4.135v2.321c0,.179,0,.522-.082.522,0,0,0,.083-.261.261l-.426.248v3.2l1.9-1.126a3.21,3.21,0,0,0,1.635-2.665l7.074,6.964,4.56-4.822s-11.717-11.538-11.634-11.538l-4.739,4.739Z" transform="translate(-217.176 -535.935)" fill="#34435a" fill-rule="evenodd"/></svg>