<svg xmlns="http://www.w3.org/2000/svg" width="18.264" height="18.265" viewBox="0 0 18.264 18.265">
  <g id="그룹_2247" data-name="그룹 2247" transform="translate(-445.232 -682.708)">
    <path id="패스_1358" data-name="패스 1358" d="M459.67,702.584a5.435,5.435,0,1,0,5.435-5.436A5.442,5.442,0,0,0,459.67,702.584Zm9.223-.331a3.8,3.8,0,1,1-4.117-3.456A3.8,3.8,0,0,1,468.893,702.253Z" transform="translate(-10.741 -10.743)" fill="#0091ff"/>
    <path id="패스_1359" data-name="패스 1359" d="M461.817,694.846l.9-.035a.555.555,0,0,0,.481-.383l.3-1.423a.555.555,0,0,0-.287-.543l-.81-.392a.679.679,0,0,1-.348-.547s0-.1-.023-.35l-.007-.085c-.012-.092.123-.259.3-.371l.762-.481a.555.555,0,0,0,.225-.572l-.45-1.38a.555.555,0,0,0-.52-.326l-.9.065a.643.643,0,0,1-.551-.254c-.094-.155-.289-.7-.191-.88l.419-.8a.553.553,0,0,0-.091-.607l-1.082-.968a.553.553,0,0,0-.614-.023l-.746.506a.643.643,0,0,1-.6.055c-.158-.087-.6-.46-.606-.668l-.035-.9a.554.554,0,0,0-.382-.481l-1.422-.3a.553.553,0,0,0-.543.287l-.392.81a.677.677,0,0,1-.546.348s-.1,0-.35.023l-.086.008c-.092.011-.259-.124-.37-.3l-.481-.763a.554.554,0,0,0-.571-.225l-1.381.451a.553.553,0,0,0-.326.52l.065.9a.644.644,0,0,1-.255.551c-.155.094-.694.289-.88.192l-.8-.419a.553.553,0,0,0-.607.091l-.968,1.083a.553.553,0,0,0-.023.613l.506.746a.642.642,0,0,1,.055.6c-.087.158-.46.6-.669.606l-.9.035a.554.554,0,0,0-.48.382l-.3,1.423a.555.555,0,0,0,.287.543l.81.392a.677.677,0,0,1,.347.547s0,.105.023.35l.008.086c.011.092-.124.259-.3.37l-.763.481a.554.554,0,0,0-.225.571l.451,1.38a.554.554,0,0,0,.52.326l.9-.066a.642.642,0,0,1,.551.254c.094.155.289.7.192.88l-.419.8a.553.553,0,0,0,.091.607l1.083.969a.555.555,0,0,0,.613.023l.746-.506a.639.639,0,0,1,.6-.055c.158.087.6.46.606.668l.035.9a.555.555,0,0,0,.382.481l1.422.3a.555.555,0,0,0,.543-.287l.393-.81a.681.681,0,0,1,.547-.348s.1,0,.35-.022l.085-.007c.092-.012.259.123.37.3l.481.763a.553.553,0,0,0,.571.226l1.38-.451a.554.554,0,0,0,.326-.52l-.065-.9a.645.645,0,0,1,.254-.551c.155-.094.695-.289.88-.191l.8.419a.553.553,0,0,0,.607-.091l.968-1.083a.554.554,0,0,0,.023-.613l-.506-.746a.641.641,0,0,1-.056-.6C461.235,695.294,461.608,694.854,461.817,694.846Zm-7.453,3.189a6.194,6.194,0,1,1,6.194-6.194A6.2,6.2,0,0,1,454.364,698.035Z" transform="translate(0)" fill="#0091ff"/>
  </g>
</svg>
